<svg width="49" height="37" viewBox="0 0 49 37" fill="none" xmlns="http://www.w3.org/2000/svg">
<path d="M1.35819 2.1937C1.4577 2.04902 1.58472 1.9005 1.74679 1.73826C2.55131 0.939534 3.61824 0.5 4.75036 0.5H44.25C45.392 0.5 46.4593 0.940261 47.2549 1.73982C47.3923 1.87774 47.5235 2.03083 47.6379 2.18382L47.94 2.58708L26.8567 20.8394C26.2067 21.4055 25.3699 21.7169 24.5001 21.7169C23.6388 21.7169 22.8027 21.4062 22.145 20.8402L1.08269 2.59228L1.35819 2.1937Z" fill="#970202"/>
<path d="M46.3579 35.9446C45.7246 36.3075 44.9953 36.5 44.2501 36.5H4.75046C4.00475 36.5 3.27578 36.3075 2.64297 35.9446L1.98086 35.5634L18.7153 21.0772L20.5493 22.6618C21.6494 23.6105 23.0523 24.1335 24.5003 24.1335C25.9536 24.1335 27.3588 23.6105 28.4582 22.6618L30.2914 21.0765L47.0201 35.5642L46.3579 35.9446Z" fill="#FFDA73"/>
<path d="M48.5 32.2791C48.5 32.3625 48.4984 32.445 48.4879 32.5185L48.3428 33.503L32.1397 19.4783L48.5 5.29995V32.2791Z" fill="#FFDA73"/>
<path d="M0.514021 32.5224C0.502616 32.4473 0.5 32.364 0.5 32.2791V5.29309L16.8613 19.4707L0.665109 33.4977L0.514021 32.5224Z" fill="#FFDA73"/>
</svg>
