<svg width="49" height="49" viewBox="0 0 49 49" fill="none" xmlns="http://www.w3.org/2000/svg">
<path fill-rule="evenodd" clip-rule="evenodd" d="M48.4855 31.7203V17.0236C48.4855 3.5997 45.3159 0.40592 31.888 0.40592C-0.949219 0.195224 0.344763 -1.14019 0.565059 31.6955C0.565059 45.1194 3.73459 48.3132 17.1625 48.3132H28.3082C42.5749 48.5592 48.8442 47.5785 48.4855 31.7203ZM39.2512 34.5902H35.7568C34.434 34.5902 34.0349 33.517 31.6637 31.1468C29.5921 29.1505 28.7185 28.9009 28.1945 28.9009C27.4705 28.9009 27.2709 29.1005 27.2709 30.0984V33.2421C27.2709 34.0905 26.9965 34.5897 24.7749 34.5897C21.0809 34.5897 17.013 32.3438 14.1173 28.2021C9.77454 22.1389 8.60131 17.5476 8.60131 16.6244C8.60131 16.1005 8.80089 15.626 9.79929 15.626H13.2937C14.1921 15.626 14.5165 16.0252 14.8661 16.9483C16.2985 21.6443 21.2052 29.4582 21.2804 24.9578V19.8177C21.1309 17.4723 19.8829 17.2727 19.8829 16.4244C19.8829 16.05 20.2325 15.626 20.7812 15.626H26.272C27.0208 15.626 27.2704 16.0004 27.2704 16.8983V23.8351C27.3654 25.4984 28.4001 24.8441 29.442 23.7603C31.9628 20.9657 33.7347 16.6239 33.7347 16.6239C33.9596 16.1 34.3587 15.626 35.2571 15.626H38.7515C39.7999 15.626 40.0243 16.15 39.7999 16.8988C39.3755 18.9446 35.1075 24.933 35.1075 24.9583C34.7331 25.5323 34.5836 25.8319 35.1075 26.5054C36.1135 27.759 43.4439 34.379 39.2512 34.5902Z" fill="#345E90"/>
</svg>
