<svg width="49" height="49" viewBox="0 0 49 49" fill="none" xmlns="http://www.w3.org/2000/svg">
<g clip-path="url(#clip0_37_176)">
<path d="M48.5 0.342285H0.5V48.3423H48.5V0.342285Z" fill="#1BD741"/>
<path d="M7.71387 41.1467L10.065 32.7961C8.5531 30.2275 7.75705 27.3051 7.75705 24.3029C7.75705 15.059 15.2775 7.53857 24.5214 7.53857C33.7652 7.53857 41.2856 15.059 41.2856 24.3029C41.2856 33.5468 33.7652 41.0672 24.5214 41.0672C21.641 41.0672 18.8206 40.3299 16.3256 38.9299L7.71387 41.1467ZM16.7658 35.88L17.279 36.1934C19.4544 37.5214 21.9588 38.2234 24.5214 38.2234C32.1972 38.2234 38.4418 31.9787 38.4418 24.3029C38.4418 16.6271 32.1972 10.3824 24.5214 10.3824C16.8456 10.3824 10.6008 16.6271 10.6008 24.3029C10.6008 26.9774 11.361 29.5746 12.7989 31.8137L13.1444 32.3518L11.7905 37.1608L16.7658 35.88Z" fill="white"/>
<path d="M19.8124 16.5002L18.7246 16.4409C18.383 16.4223 18.0478 16.5365 17.7896 16.7608C17.2622 17.2188 16.419 18.1041 16.16 19.2579C15.7737 20.9781 16.3706 23.0846 17.9154 25.1912C19.4602 27.2977 22.3391 30.6681 27.4298 32.1075C29.0702 32.5714 30.3607 32.2587 31.3563 31.6218C32.1449 31.1174 32.6885 30.3077 32.8844 29.3925L33.058 28.5813C33.1132 28.3234 32.9823 28.0618 32.7428 27.9514L29.0664 26.2568C28.8278 26.1469 28.5448 26.2164 28.3842 26.4244L26.941 28.2954C26.8319 28.4367 26.6453 28.4928 26.4768 28.4336C25.4884 28.0862 22.1776 26.6996 20.361 23.2003C20.2822 23.0485 20.3018 22.8643 20.4135 22.7349L21.7929 21.1392C21.9338 20.9762 21.9694 20.7472 21.8847 20.5491L20.3 16.8416C20.2156 16.6442 20.0266 16.5119 19.8124 16.5002Z" fill="white"/>
</g>
<defs>
<clipPath id="clip0_37_176">
<rect x="0.5" y="0.5" width="48" height="48" rx="10" fill="white"/>
</clipPath>
</defs>
</svg>
