<svg width="60" height="60" viewBox="0 0 60 60" fill="none" xmlns="http://www.w3.org/2000/svg">
<path fill-rule="evenodd" clip-rule="evenodd" d="M30 2.6087C45.1429 2.6087 57.3913 14.8571 57.3913 30C57.3913 45.1429 45.1429 57.3913 30 57.3913C14.8571 57.3913 2.6087 45.1429 2.6087 30C2.6087 14.8571 14.8571 2.6087 30 2.6087ZM39.5126 18.643C39.7511 18.3949 40.078 18.2512 40.422 18.243C40.6848 18.2368 40.9432 18.3101 41.1636 18.4533C41.384 18.5965 41.5559 18.8029 41.657 19.0455C41.7581 19.2881 41.7835 19.5556 41.7299 19.8129C41.6764 20.0702 41.5464 20.3053 41.357 20.4874L31.8444 30L41.357 39.5126C41.4822 39.6328 41.5821 39.7767 41.651 39.936C41.7198 40.0953 41.7562 40.2668 41.758 40.4403C41.7597 40.6138 41.7269 40.786 41.6613 40.9466C41.5957 41.1073 41.4987 41.2532 41.376 41.376C41.2532 41.4987 41.1073 41.5957 40.9466 41.6613C40.786 41.7269 40.6138 41.7597 40.4403 41.758C40.2668 41.7562 40.0953 41.7198 39.936 41.651C39.7767 41.5821 39.6328 41.4822 39.5126 41.357L30 31.8444L20.4874 41.357C20.3672 41.4822 20.2233 41.5821 20.064 41.651C19.9047 41.7198 19.7333 41.7562 19.5597 41.758C19.3862 41.7597 19.214 41.7269 19.0534 41.6613C18.8927 41.5957 18.7467 41.4987 18.624 41.376C18.5013 41.2532 18.4043 41.1073 18.3387 40.9466C18.2731 40.786 18.2403 40.6138 18.242 40.4403C18.2438 40.2668 18.2802 40.0953 18.349 39.936C18.4179 39.7767 18.5178 39.6328 18.643 39.5126L28.1556 30L18.643 20.4874C18.4571 20.3065 18.3293 20.0741 18.2761 19.8202C18.2229 19.5662 18.2466 19.3022 18.3442 19.0617C18.4419 18.8213 18.609 18.6155 18.8242 18.4706C19.0394 18.3256 19.293 18.2482 19.5525 18.2481C19.7268 18.2481 19.8993 18.2831 20.0599 18.3509C20.2205 18.4187 20.3659 18.5181 20.4874 18.643L30 28.1556L39.5126 18.643Z" fill="white"/>
<path fill-rule="evenodd" clip-rule="evenodd" d="M30 0C13.4472 0 0 13.4472 0 30C0 46.5528 13.4472 60 30 60C46.5528 60 60 46.5528 60 30C60 13.4472 46.5528 0 30 0ZM57.3913 30C57.3913 14.8571 45.1429 2.6087 30 2.6087C14.8571 2.6087 2.6087 14.8571 2.6087 30C2.6087 45.1429 14.8571 57.3913 30 57.3913C45.1429 57.3913 57.3913 45.1429 57.3913 30Z" fill="white"/>
</svg>
