<svg width="162" height="210" viewBox="0 0 162 210" fill="none" xmlns="http://www.w3.org/2000/svg">
<path d="M23.5184 206.432C12.4828 206.432 3.51074 197.442 3.51074 186.385V23.6205C3.51074 12.5632 12.4872 3.57373 23.5184 3.57373H106.805L158.487 55.3428V186.385C158.487 197.442 149.511 206.432 138.48 206.432H23.5184Z" fill="white"/>
<path d="M105.543 6.61655L125.838 26.9463L155.436 56.6008V186.385C155.436 195.762 147.827 203.389 138.476 203.389H23.5188C14.1636 203.389 6.55846 195.762 6.55846 186.385V23.6204C6.55846 14.2435 14.168 6.61655 23.5188 6.61655H26.8665H34.3454H58.3885H105.543ZM108.072 0.521973H58.3929H34.3497H26.8708H23.5232C10.8377 0.521973 0.463867 10.9176 0.463867 23.6204V186.385C0.463867 199.088 10.8421 209.479 23.5188 209.479H138.471C151.152 209.479 161.526 199.083 161.526 186.381V54.0803H161.535C140.744 33.2499 128.864 21.3524 108.072 0.521973Z" fill="#382460"/>
<path d="M107.118 4.875V33.0973C107.118 45.108 116.756 54.9376 128.541 54.9376H157.181" fill="white"/>
<path d="M157.181 57.1143H128.541C115.529 57.1143 104.942 46.3399 104.942 33.0973V4.875H109.295V33.0973C109.295 43.9413 117.928 52.761 128.541 52.761H157.181V57.1143ZM135.415 196.419H26.5833C19.3829 196.419 13.5234 190.56 13.5234 183.359V26.6414C13.5234 19.4411 19.3829 13.5815 26.5833 13.5815H35.2898C36.4913 13.5815 37.4664 14.5567 37.4664 15.7582C37.4664 16.9597 36.4913 17.9348 35.2898 17.9348H26.5833C21.7816 17.9348 17.8767 21.8397 17.8767 26.6414V183.359C17.8767 188.161 21.7816 192.066 26.5833 192.066H135.415C140.217 192.066 144.122 188.161 144.122 183.359V117.699C144.122 116.497 145.097 115.522 146.298 115.522C147.5 115.522 148.475 116.497 148.475 117.699V183.359C148.475 190.56 142.615 196.419 135.415 196.419ZM146.298 109.354C145.097 109.354 144.122 108.378 144.122 107.177V89.7638C144.122 88.5623 145.097 87.5872 146.298 87.5872C147.5 87.5872 148.475 88.5623 148.475 89.7638V107.177C148.475 108.378 147.5 109.354 146.298 109.354ZM146.298 82.1456C145.097 82.1456 144.122 81.1705 144.122 79.969V68.7245C144.122 67.5229 145.097 66.5478 146.298 66.5478C147.5 66.5478 148.475 67.5229 148.475 68.7245V79.969C148.475 81.1705 147.5 82.1456 146.298 82.1456Z" fill="#382460"/>
<path d="M76.6474 77.7928H33.1147C32.5139 77.7928 32.0264 77.3053 32.0264 76.7045C32.0264 76.1038 32.5139 75.6162 33.1147 75.6162H76.6474C77.2482 75.6162 77.7357 76.1038 77.7357 76.7045C77.7357 77.3053 77.2482 77.7928 76.6474 77.7928Z" fill="#382460"/>
<path d="M63.5876 130.032H33.1147C32.5139 130.032 32.0264 129.545 32.0264 128.944C32.0264 128.343 32.5139 127.855 33.1147 127.855H63.5876C64.1883 127.855 64.6759 128.343 64.6759 128.944C64.6759 129.545 64.1883 130.032 63.5876 130.032Z" fill="#382460"/>
<path d="M76.6474 95.2054H33.1147C32.5139 95.2054 32.0264 94.7179 32.0264 94.1171C32.0264 93.5164 32.5139 93.0288 33.1147 93.0288H76.6474C77.2482 93.0288 77.7357 93.5164 77.7357 94.1171C77.7357 94.7179 77.2482 95.2054 76.6474 95.2054Z" fill="#382460"/>
<path d="M76.6474 112.619H33.1147C32.5139 112.619 32.0264 112.131 32.0264 111.53C32.0264 110.929 32.5139 110.442 33.1147 110.442H76.6474C77.2482 110.442 77.7357 110.929 77.7357 111.53C77.7357 112.131 77.2482 112.619 76.6474 112.619Z" fill="#382460"/>
<path d="M76.6474 147.444H33.1147C32.5139 147.444 32.0264 146.957 32.0264 146.356C32.0264 145.755 32.5139 145.268 33.1147 145.268H76.6474C77.2482 145.268 77.7357 145.755 77.7357 146.356C77.7357 146.957 77.2482 147.444 76.6474 147.444Z" fill="#382460"/>
<path d="M85.354 164.858H33.1147C32.5139 164.858 32.0264 164.37 32.0264 163.769C32.0264 163.169 32.5139 162.681 33.1147 162.681H85.354C85.9547 162.681 86.4423 163.169 86.4423 163.769C86.4423 164.37 85.9547 164.858 85.354 164.858Z" fill="#382460"/>
<path d="M128.885 164.858H94.059C93.4583 164.858 92.9707 164.37 92.9707 163.769C92.9707 163.169 93.4583 162.681 94.059 162.681H128.885C129.486 162.681 129.974 163.169 129.974 163.769C129.974 164.37 129.486 164.858 128.885 164.858Z" fill="#382460"/>
<path d="M128.886 130.032H72.2934C71.6926 130.032 71.2051 129.545 71.2051 128.944C71.2051 128.343 71.6926 127.855 72.2934 127.855H128.886C129.487 127.855 129.974 128.343 129.974 128.944C129.974 129.545 129.487 130.032 128.886 130.032Z" fill="#382460"/>
<path d="M128.886 147.444H111.473C110.872 147.444 110.385 146.957 110.385 146.356C110.385 145.755 110.872 145.268 111.473 145.268H128.886C129.487 145.268 129.974 145.755 129.974 146.356C129.974 146.957 129.487 147.444 128.886 147.444Z" fill="#382460"/>
<path d="M89.7051 118.06V76.7041H128.885V115.884H104.942" fill="white"/>
<path d="M90.7948 118.061H88.6182V75.6162H129.974V116.972H104.943V114.796H127.798V77.7928H90.7948V118.061Z" fill="#382460"/>
<path d="M102.765 147.444H85.352C84.7512 147.444 84.2637 146.957 84.2637 146.356C84.2637 145.755 84.7512 145.268 85.352 145.268H102.765C103.366 145.268 103.853 145.755 103.853 146.356C103.853 146.957 103.366 147.444 102.765 147.444Z" fill="#382460"/>
</svg>
